<svg width="29" height="19" viewBox="0 0 29 19" fill="none" xmlns="http://www.w3.org/2000/svg">
<path d="M22.6022 7C21.8022 3 18.3022 0 14.0022 0C10.6022 0 7.70215 1.9 6.30215 4.7C2.80215 5.2 0.102151 8 0.00215139 11.5C-0.0978486 15.5 3.30215 18.7 7.30215 18.7H22.0022C24.7022 18.7 27.1021 17 27.8022 14.5C28.8022 10.7 26.1022 7.2 22.6022 7ZM16.3022 10.5V14.7C16.3022 15 16.1021 15.2 15.8022 15.2H12.1022C11.8022 15.2 11.6022 15 11.6022 14.7V10.5H9.20215C8.80215 10.5 8.60215 10 8.90215 9.7L13.6022 5C13.8022 4.8 14.1022 4.8 14.3022 5L19.0022 9.7C19.3022 10 19.1022 10.5 18.7022 10.5H16.3022Z" fill="url(#paint0_linear)"/>
<defs>
<linearGradient id="paint0_linear" x1="1.91226e-06" y1="3.73999" x2="34.6139" y2="3.33777" gradientUnits="userSpaceOnUse">
<stop stop-color="#FA709A"/>
<stop offset="0.9999" stop-color="#FBD786"/>
<stop offset="1" stop-color="#FEE140"/>
</linearGradient>
</defs>
</svg>
