<svg width="18" height="17" viewBox="0 0 18 17" fill="none" xmlns="http://www.w3.org/2000/svg">
<path d="M12.5485 9.15186H4.45157C4.20342 9.15186 4 8.92662 4 8.65186C4 8.37709 4.20342 8.15186 4.45157 8.15186H12.5484C12.7966 8.15186 13 8.37709 13 8.65186C13 8.92662 12.7966 9.15186 12.5485 9.15186Z" fill="black" fill-opacity="0.2"/>
<path d="M14.2878 6.12984H4.41534C4.11278 6.12984 3.86475 5.88482 3.86475 5.58592C3.86475 5.28702 4.11278 5.04199 4.41534 5.04199H14.2877C14.5903 5.04199 14.8383 5.28702 14.8383 5.58592C14.8383 5.88482 14.5903 6.12984 14.2878 6.12984Z" fill="black" fill-opacity="0.2"/>
<path d="M4.6909 17C4.17523 17 3.75674 16.5874 3.75674 16.0797V13.8821C2.05039 13.4089 0.845215 11.8697 0.845215 10.0964V3.93804C0.845215 1.76653 2.63339 0 4.83063 0H14.0144C16.2125 0 17.9998 1.76653 17.9998 3.93804V10.0956C17.9998 12.2671 16.2116 14.0336 14.0144 14.0336H8.32854L5.31558 16.7575C5.14343 16.915 4.921 17 4.6909 17ZM4.83063 0.842873C3.10298 0.842873 1.6975 2.23134 1.6975 3.93809V10.0956C1.6975 11.5826 2.77569 12.8599 4.26125 13.1336L4.60898 13.1976V16.0789C4.60898 16.1538 4.68993 16.1572 4.6908 16.1572C4.70872 16.1572 4.72403 16.1505 4.74021 16.137L7.99777 13.1917H14.0151C15.7428 13.1917 17.1483 11.8032 17.1483 10.0957V3.93804C17.1483 2.2313 15.7428 0.842014 14.0151 0.842014H4.83063V0.842873Z" fill="black" fill-opacity="0.2"/>
</svg>
