<svg width="100" height="101" viewBox="0 0 100 101" fill="none" xmlns="http://www.w3.org/2000/svg">
<path d="M0.0439453 97.0001V84.4001H3.13995V89.9081L8.23395 84.4001H11.9779L6.14595 90.3221L12.3019 97.0001H8.19795L3.13995 91.2221V97.0001H0.0439453Z" fill="url(#paint0_linear)"/>
<path d="M15.5103 97.1621C14.5023 97.1621 13.6743 96.8861 13.0263 96.3341C12.3783 95.7821 12.0543 95.0741 12.0543 94.2101C12.0543 93.3101 12.3963 92.6081 13.0803 92.1041C13.7763 91.6001 14.7423 91.3481 15.9783 91.3481C16.3503 91.3481 16.7163 91.3721 17.0763 91.4201C17.4363 91.4681 17.7903 91.5341 18.1383 91.6181V91.1501C18.1383 90.6701 17.9823 90.3161 17.6703 90.0881C17.3703 89.8481 16.9203 89.7281 16.3203 89.7281C15.9483 89.7281 15.5283 89.7881 15.0603 89.9081C14.5923 90.0281 14.0523 90.2201 13.4403 90.4841L12.3963 88.3421C13.1643 87.9941 13.9143 87.7361 14.6463 87.5681C15.3903 87.3881 16.1223 87.2981 16.8423 87.2981C18.1623 87.2981 19.1883 87.6161 19.9203 88.2521C20.6523 88.8761 21.0183 89.7581 21.0183 90.8981V97.0001H18.1383V96.4241C17.7543 96.6881 17.3463 96.8801 16.9143 97.0001C16.4943 97.1081 16.0263 97.1621 15.5103 97.1621ZM14.8263 94.1561C14.8263 94.4561 14.9583 94.6901 15.2223 94.8581C15.4863 95.0261 15.8523 95.1101 16.3203 95.1101C16.6683 95.1101 16.9923 95.0741 17.2923 95.0021C17.6043 94.9301 17.8863 94.8161 18.1383 94.6601V93.4361C17.8623 93.3641 17.5803 93.3101 17.2923 93.2741C17.0043 93.2381 16.7103 93.2201 16.4103 93.2201C15.9063 93.2201 15.5163 93.3041 15.2403 93.4721C14.9643 93.6281 14.8263 93.8561 14.8263 94.1561Z" fill="url(#paint1_linear)"/>
<path d="M25.6675 83.7701V97.0001H22.7515V84.4001L25.6675 83.7701Z" fill="url(#paint2_linear)"/>
<path d="M28.9204 86.5961C28.4764 86.5961 28.0984 86.4401 27.7864 86.1281C27.4744 85.8161 27.3184 85.4381 27.3184 84.9941C27.3184 84.5501 27.4744 84.1721 27.7864 83.8601C28.0984 83.5481 28.4764 83.3921 28.9204 83.3921C29.3644 83.3921 29.7424 83.5481 30.0544 83.8601C30.3664 84.1721 30.5224 84.5501 30.5224 84.9941C30.5224 85.4381 30.3664 85.8161 30.0544 86.1281C29.7424 86.4401 29.3644 86.5961 28.9204 86.5961ZM30.3784 87.4781V97.0001H27.4624V87.4781H30.3784Z" fill="url(#paint3_linear)"/>
<path d="M34.8914 97.1441V97.1261L31.2374 87.4781H34.4594L36.5654 93.4721L39.0134 87.4781H42.1634L37.8974 97.4861C37.3694 98.7221 36.7574 99.5981 36.0614 100.114C35.3654 100.63 34.4474 100.888 33.3074 100.888C33.0794 100.888 32.8574 100.876 32.6414 100.852C32.4254 100.84 32.2454 100.816 32.1014 100.78V98.2961C32.2334 98.3201 32.3654 98.3381 32.4974 98.3501C32.6414 98.3621 32.8094 98.3681 33.0014 98.3681C33.4574 98.3681 33.8474 98.2661 34.1714 98.0621C34.4954 97.8581 34.7354 97.5521 34.8914 97.1441Z" fill="url(#paint4_linear)"/>
<path d="M43.5051 97.0001V84.4001H48.9771C50.2011 84.4001 51.1851 84.7361 51.9291 85.4081C52.6731 86.0681 53.0451 86.9441 53.0451 88.0361C53.0451 89.1281 52.6671 90.0101 51.9111 90.6821C51.1671 91.3541 50.1891 91.6901 48.9771 91.6901H44.8911V97.0001H43.5051ZM48.8691 85.6421H44.8911V90.4841H48.8691C49.7211 90.4841 50.3991 90.2681 50.9031 89.8361C51.4071 89.3921 51.6591 88.7981 51.6591 88.0541C51.6591 87.3101 51.4071 86.7221 50.9031 86.2901C50.3991 85.8581 49.7211 85.6421 48.8691 85.6421Z" fill="url(#paint5_linear)"/>
<path d="M54.9074 97.0001V87.9821H56.2394V89.2601C56.5034 88.7921 56.8514 88.4321 57.2834 88.1801C57.7154 87.9161 58.2074 87.7841 58.7594 87.7841C58.9274 87.7841 59.0774 87.7961 59.2094 87.8201C59.3414 87.8321 59.4734 87.8621 59.6054 87.9101V89.1341C59.4494 89.0861 59.2934 89.0501 59.1374 89.0261C58.9814 88.9901 58.8254 88.9721 58.6694 88.9721C58.1174 88.9721 57.6314 89.1341 57.2114 89.4581C56.7914 89.7701 56.4674 90.2261 56.2394 90.8261V97.0001H54.9074Z" fill="url(#paint6_linear)"/>
<path d="M60.0657 92.4821C60.0657 91.8341 60.1857 91.2221 60.4257 90.6461C60.6657 90.0701 60.9897 89.5721 61.3977 89.1521C61.8177 88.7321 62.3096 88.4021 62.8736 88.1621C63.4376 87.9221 64.0377 87.8021 64.6737 87.8021C65.3097 87.8021 65.9037 87.9221 66.4557 88.1621C67.0197 88.4021 67.5057 88.7321 67.9137 89.1521C68.3337 89.5721 68.6636 90.0701 68.9036 90.6461C69.1436 91.2221 69.2636 91.8341 69.2636 92.4821C69.2636 93.1421 69.1436 93.7601 68.9036 94.3361C68.6636 94.9121 68.3337 95.4101 67.9137 95.8301C67.5057 96.2501 67.0197 96.5801 66.4557 96.8201C65.9037 97.0601 65.3097 97.1801 64.6737 97.1801C64.0377 97.1801 63.4376 97.0601 62.8736 96.8201C62.3096 96.5801 61.8177 96.2501 61.3977 95.8301C60.9897 95.4101 60.6657 94.9121 60.4257 94.3361C60.1857 93.7601 60.0657 93.1421 60.0657 92.4821ZM64.6737 95.9921C65.1297 95.9921 65.5557 95.9021 65.9517 95.7221C66.3597 95.5421 66.7077 95.2961 66.9957 94.9841C67.2957 94.6601 67.5296 94.2881 67.6976 93.8681C67.8656 93.4361 67.9497 92.9741 67.9497 92.4821C67.9497 91.9901 67.8656 91.5341 67.6976 91.1141C67.5296 90.6821 67.2957 90.3101 66.9957 89.9981C66.7077 89.6861 66.3597 89.4401 65.9517 89.2601C65.5557 89.0801 65.1297 88.9901 64.6737 88.9901C64.2177 88.9901 63.7856 89.0801 63.3776 89.2601C62.9816 89.4401 62.6336 89.6861 62.3336 89.9981C62.0456 90.3101 61.8116 90.6821 61.6316 91.1141C61.4636 91.5341 61.3797 91.9901 61.3797 92.4821C61.3797 92.9741 61.4636 93.4361 61.6316 93.8681C61.7996 94.2881 62.0277 94.6601 62.3157 94.9841C62.6157 95.2961 62.9696 95.5421 63.3776 95.7221C63.7856 95.9021 64.2177 95.9921 64.6737 95.9921Z" fill="url(#paint7_linear)"/>
<path d="M71.7804 86.2541C71.5404 86.2541 71.3304 86.1641 71.1504 85.9841C70.9704 85.8041 70.8804 85.5941 70.8804 85.3541C70.8804 85.1021 70.9704 84.8921 71.1504 84.7241C71.3304 84.5441 71.5404 84.4541 71.7804 84.4541C72.0324 84.4541 72.2424 84.5441 72.4104 84.7241C72.5904 84.8921 72.6804 85.1021 72.6804 85.3541C72.6804 85.5941 72.5904 85.8041 72.4104 85.9841C72.2424 86.1641 72.0324 86.2541 71.7804 86.2541ZM70.1244 100.744C69.9564 100.744 69.8004 100.732 69.6564 100.708C69.5124 100.684 69.3924 100.66 69.2964 100.636V99.5201C69.4044 99.5441 69.5124 99.5621 69.6204 99.5741C69.7164 99.5861 69.8304 99.5921 69.9624 99.5921C70.3704 99.5921 70.6644 99.4961 70.8444 99.3041C71.0244 99.1121 71.1144 98.8001 71.1144 98.3681V87.9821H72.4464V98.4761C72.4464 99.1961 72.2424 99.7541 71.8344 100.15C71.4264 100.546 70.8564 100.744 70.1244 100.744Z" fill="url(#paint8_linear)"/>
<path d="M82.3139 96.0461C81.8099 96.4181 81.2819 96.7001 80.7299 96.8921C80.1899 97.0721 79.5959 97.1621 78.9479 97.1621C78.2999 97.1621 77.6879 97.0421 77.1119 96.8021C76.5479 96.5621 76.0559 96.2321 75.6359 95.8121C75.2279 95.3921 74.9039 94.9001 74.6639 94.3361C74.4239 93.7601 74.3039 93.1421 74.3039 92.4821C74.3039 91.8341 74.4179 91.2281 74.6459 90.6641C74.8859 90.1001 75.2039 89.6081 75.5999 89.1881C75.9959 88.7681 76.4639 88.4381 77.0039 88.1981C77.5559 87.9581 78.1379 87.8381 78.7499 87.8381C79.3499 87.8381 79.9079 87.9581 80.4239 88.1981C80.9519 88.4381 81.4019 88.7681 81.7739 89.1881C82.1579 89.6081 82.4579 90.1001 82.6739 90.6641C82.9019 91.2281 83.0159 91.8341 83.0159 92.4821V92.8961H75.6179C75.7139 93.7841 76.0799 94.5221 76.7159 95.1101C77.3519 95.6981 78.1139 95.9921 79.0019 95.9921C79.4699 95.9921 79.9259 95.9201 80.3699 95.7761C80.8139 95.6321 81.1859 95.4281 81.4859 95.1641L82.3139 96.0461ZM78.7139 89.0081C77.9339 89.0081 77.2559 89.2721 76.6799 89.8001C76.1159 90.3281 75.7739 91.0061 75.6539 91.8341H81.6839C81.5639 91.0421 81.2219 90.3761 80.6579 89.8361C80.1059 89.2841 79.4579 89.0081 78.7139 89.0081Z" fill="url(#paint9_linear)"/>
<path d="M89.1077 95.9561C89.5877 95.9561 90.0497 95.8601 90.4937 95.6681C90.9377 95.4761 91.3517 95.1941 91.7357 94.8221L92.5637 95.7221C92.0837 96.1781 91.5437 96.5321 90.9437 96.7841C90.3437 97.0361 89.7197 97.1621 89.0717 97.1621C88.4357 97.1621 87.8357 97.0421 87.2717 96.8021C86.7077 96.5621 86.2217 96.2321 85.8137 95.8121C85.4057 95.3921 85.0817 94.8941 84.8417 94.3181C84.6017 93.7421 84.4817 93.1301 84.4817 92.4821C84.4817 91.8341 84.6017 91.2281 84.8417 90.6641C85.0817 90.0881 85.4057 89.5901 85.8137 89.1701C86.2217 88.7501 86.7077 88.4201 87.2717 88.1801C87.8357 87.9281 88.4357 87.8021 89.0717 87.8021C89.7197 87.8021 90.3497 87.9281 90.9617 88.1801C91.5857 88.4321 92.1317 88.7801 92.5997 89.2241L91.7537 90.1961C91.3937 89.8241 90.9797 89.5361 90.5117 89.3321C90.0437 89.1281 89.5697 89.0261 89.0897 89.0261C88.6337 89.0261 88.2017 89.1161 87.7937 89.2961C87.3857 89.4761 87.0317 89.7221 86.7317 90.0341C86.4437 90.3461 86.2157 90.7121 86.0477 91.1321C85.8797 91.5521 85.7957 92.0021 85.7957 92.4821C85.7957 92.9741 85.8797 93.4361 86.0477 93.8681C86.2277 94.2881 86.4617 94.6541 86.7497 94.9661C87.0497 95.2661 87.4037 95.5061 87.8117 95.6861C88.2197 95.8661 88.6517 95.9561 89.1077 95.9561Z" fill="url(#paint10_linear)"/>
<path d="M95.416 94.9841V89.1161H93.472V87.9821H95.416V85.6961L96.73 85.3541V87.9821H99.448V89.1161H96.73V94.6421C96.73 95.1221 96.838 95.4701 97.054 95.6861C97.27 95.8901 97.624 95.9921 98.116 95.9921C98.368 95.9921 98.59 95.9741 98.782 95.9381C98.986 95.9021 99.202 95.8421 99.43 95.7581V96.9281C99.202 97.0121 98.944 97.0721 98.656 97.1081C98.38 97.1441 98.11 97.1621 97.846 97.1621C97.066 97.1621 96.466 96.9761 96.046 96.6041C95.626 96.2321 95.416 95.6921 95.416 94.9841Z" fill="url(#paint11_linear)"/>
<path d="M42.6797 34.6875L58.4609 17.2656H69.7109L52.6797 35.5859L70.8828 60H59.1641L45.4531 41.6797L42.0156 45.1172V60H32.3281V0.742188H42.0156V34.6875H42.6797Z" fill="url(#paint12_linear)"/>
<defs>
<linearGradient id="paint0_linear" x1="0.0439521" y1="86.8913" x2="122.651" y2="81.4876" gradientUnits="userSpaceOnUse">
<stop stop-color="#FA709A"/>
<stop offset="0.9999" stop-color="#FBD786"/>
<stop offset="1" stop-color="#FEE140"/>
</linearGradient>
<linearGradient id="paint1_linear" x1="0.0439521" y1="86.8913" x2="122.651" y2="81.4876" gradientUnits="userSpaceOnUse">
<stop stop-color="#FA709A"/>
<stop offset="0.9999" stop-color="#FBD786"/>
<stop offset="1" stop-color="#FEE140"/>
</linearGradient>
<linearGradient id="paint2_linear" x1="0.0439521" y1="86.8913" x2="122.651" y2="81.4876" gradientUnits="userSpaceOnUse">
<stop stop-color="#FA709A"/>
<stop offset="0.9999" stop-color="#FBD786"/>
<stop offset="1" stop-color="#FEE140"/>
</linearGradient>
<linearGradient id="paint3_linear" x1="0.0439521" y1="86.8913" x2="122.651" y2="81.4876" gradientUnits="userSpaceOnUse">
<stop stop-color="#FA709A"/>
<stop offset="0.9999" stop-color="#FBD786"/>
<stop offset="1" stop-color="#FEE140"/>
</linearGradient>
<linearGradient id="paint4_linear" x1="0.0439521" y1="86.8913" x2="122.651" y2="81.4876" gradientUnits="userSpaceOnUse">
<stop stop-color="#FA709A"/>
<stop offset="0.9999" stop-color="#FBD786"/>
<stop offset="1" stop-color="#FEE140"/>
</linearGradient>
<linearGradient id="paint5_linear" x1="0.0439521" y1="86.8913" x2="122.651" y2="81.4876" gradientUnits="userSpaceOnUse">
<stop stop-color="#FA709A"/>
<stop offset="0.9999" stop-color="#FBD786"/>
<stop offset="1" stop-color="#FEE140"/>
</linearGradient>
<linearGradient id="paint6_linear" x1="0.0439521" y1="86.8913" x2="122.651" y2="81.4876" gradientUnits="userSpaceOnUse">
<stop stop-color="#FA709A"/>
<stop offset="0.9999" stop-color="#FBD786"/>
<stop offset="1" stop-color="#FEE140"/>
</linearGradient>
<linearGradient id="paint7_linear" x1="0.0439521" y1="86.8913" x2="122.651" y2="81.4876" gradientUnits="userSpaceOnUse">
<stop stop-color="#FA709A"/>
<stop offset="0.9999" stop-color="#FBD786"/>
<stop offset="1" stop-color="#FEE140"/>
</linearGradient>
<linearGradient id="paint8_linear" x1="0.0439521" y1="86.8913" x2="122.651" y2="81.4876" gradientUnits="userSpaceOnUse">
<stop stop-color="#FA709A"/>
<stop offset="0.9999" stop-color="#FBD786"/>
<stop offset="1" stop-color="#FEE140"/>
</linearGradient>
<linearGradient id="paint9_linear" x1="0.0439521" y1="86.8913" x2="122.651" y2="81.4876" gradientUnits="userSpaceOnUse">
<stop stop-color="#FA709A"/>
<stop offset="0.9999" stop-color="#FBD786"/>
<stop offset="1" stop-color="#FEE140"/>
</linearGradient>
<linearGradient id="paint10_linear" x1="0.0439521" y1="86.8913" x2="122.651" y2="81.4876" gradientUnits="userSpaceOnUse">
<stop stop-color="#FA709A"/>
<stop offset="0.9999" stop-color="#FBD786"/>
<stop offset="1" stop-color="#FEE140"/>
</linearGradient>
<linearGradient id="paint11_linear" x1="0.0439521" y1="86.8913" x2="122.651" y2="81.4876" gradientUnits="userSpaceOnUse">
<stop stop-color="#FA709A"/>
<stop offset="0.9999" stop-color="#FBD786"/>
<stop offset="1" stop-color="#FEE140"/>
</linearGradient>
<linearGradient id="paint12_linear" x1="32.3281" y1="12.5937" x2="79.9736" y2="12.3533" gradientUnits="userSpaceOnUse">
<stop stop-color="#FA709A"/>
<stop offset="0.9999" stop-color="#FBD786"/>
<stop offset="1" stop-color="#FEE140"/>
</linearGradient>
</defs>
</svg>
