<svg width="73" height="13" viewBox="0 0 73 13" fill="none" xmlns="http://www.w3.org/2000/svg">
<path d="M0.754 10V0.899999H2.99V4.878L6.669 0.899999H9.373L5.161 5.177L9.607 10H6.643L2.99 5.827V10H0.754ZM11.9241 10.117C11.1961 10.117 10.5981 9.91767 10.1301 9.519C9.66215 9.12033 9.42815 8.609 9.42815 7.985C9.42815 7.335 9.67515 6.828 10.1691 6.464C10.6718 6.1 11.3695 5.918 12.2621 5.918C12.5308 5.918 12.7951 5.93533 13.0551 5.97C13.3151 6.00467 13.5708 6.05233 13.8221 6.113V5.775C13.8221 5.42833 13.7095 5.17267 13.4841 5.008C13.2675 4.83467 12.9425 4.748 12.5091 4.748C12.2405 4.748 11.9371 4.79133 11.5991 4.878C11.2611 4.96467 10.8711 5.10333 10.4291 5.294L9.67515 3.747C10.2298 3.49567 10.7715 3.30933 11.3001 3.188C11.8375 3.058 12.3661 2.993 12.8861 2.993C13.8395 2.993 14.5805 3.22267 15.1091 3.682C15.6378 4.13267 15.9021 4.76967 15.9021 5.593V10H13.8221V9.584C13.5448 9.77467 13.2501 9.91333 12.9381 10C12.6348 10.078 12.2968 10.117 11.9241 10.117ZM11.4301 7.946C11.4301 8.16267 11.5255 8.33167 11.7161 8.453C11.9068 8.57433 12.1711 8.635 12.5091 8.635C12.7605 8.635 12.9945 8.609 13.2111 8.557C13.4365 8.505 13.6401 8.42267 13.8221 8.31V7.426C13.6228 7.374 13.4191 7.335 13.2111 7.309C13.0031 7.283 12.7908 7.27 12.5741 7.27C12.2101 7.27 11.9285 7.33067 11.7291 7.452C11.5298 7.56467 11.4301 7.72933 11.4301 7.946ZM19.2599 0.445V10H17.1539V0.899999L19.2599 0.445ZM21.6093 2.486C21.2886 2.486 21.0156 2.37333 20.7903 2.148C20.5649 1.92267 20.4523 1.64967 20.4523 1.329C20.4523 1.00833 20.5649 0.735333 20.7903 0.51C21.0156 0.284666 21.2886 0.171999 21.6093 0.171999C21.9299 0.171999 22.2029 0.284666 22.4283 0.51C22.6536 0.735333 22.7663 1.00833 22.7663 1.329C22.7663 1.64967 22.6536 1.92267 22.4283 2.148C22.2029 2.37333 21.9299 2.486 21.6093 2.486ZM22.6623 3.123V10H20.5563V3.123H22.6623ZM25.9216 10.104V10.091L23.2826 3.123H25.6096L27.1306 7.452L28.8986 3.123H31.1736L28.0926 10.351C27.7113 11.2437 27.2693 11.8763 26.7666 12.249C26.2639 12.6217 25.6009 12.808 24.7776 12.808C24.6129 12.808 24.4526 12.7993 24.2966 12.782C24.1406 12.7733 24.0106 12.756 23.9066 12.73V10.936C24.0019 10.9533 24.0973 10.9663 24.1926 10.975C24.2966 10.9837 24.4179 10.988 24.5566 10.988C24.8859 10.988 25.1676 10.9143 25.4016 10.767C25.6356 10.6197 25.8089 10.3987 25.9216 10.104ZM32.1426 10V0.899999H36.0946C36.9786 0.899999 37.6893 1.14267 38.2266 1.628C38.7639 2.10467 39.0326 2.73733 39.0326 3.526C39.0326 4.31467 38.7596 4.95167 38.2136 5.437C37.6763 5.92233 36.9699 6.165 36.0946 6.165H33.1436V10H32.1426ZM36.0166 1.797H33.1436V5.294H36.0166C36.6319 5.294 37.1216 5.138 37.4856 4.826C37.8496 4.50533 38.0316 4.07633 38.0316 3.539C38.0316 3.00167 37.8496 2.577 37.4856 2.265C37.1216 1.953 36.6319 1.797 36.0166 1.797ZM40.3776 10V3.487H41.3396V4.41C41.5303 4.072 41.7816 3.812 42.0936 3.63C42.4056 3.43933 42.7609 3.344 43.1596 3.344C43.2809 3.344 43.3893 3.35267 43.4846 3.37C43.5799 3.37867 43.6753 3.40033 43.7706 3.435V4.319C43.6579 4.28433 43.5453 4.25833 43.4326 4.241C43.3199 4.215 43.2073 4.202 43.0946 4.202C42.6959 4.202 42.3449 4.319 42.0416 4.553C41.7383 4.77833 41.5043 5.10767 41.3396 5.541V10H40.3776ZM44.103 6.737C44.103 6.269 44.1897 5.827 44.363 5.411C44.5363 4.995 44.7703 4.63533 45.065 4.332C45.3683 4.02867 45.7237 3.79033 46.131 3.617C46.5383 3.44367 46.9717 3.357 47.431 3.357C47.8903 3.357 48.3193 3.44367 48.718 3.617C49.1253 3.79033 49.4763 4.02867 49.771 4.332C50.0743 4.63533 50.3127 4.995 50.486 5.411C50.6593 5.827 50.746 6.269 50.746 6.737C50.746 7.21367 50.6593 7.66 50.486 8.076C50.3127 8.492 50.0743 8.85167 49.771 9.155C49.4763 9.45833 49.1253 9.69667 48.718 9.87C48.3193 10.0433 47.8903 10.13 47.431 10.13C46.9717 10.13 46.5383 10.0433 46.131 9.87C45.7237 9.69667 45.3683 9.45833 45.065 9.155C44.7703 8.85167 44.5363 8.492 44.363 8.076C44.1897 7.66 44.103 7.21367 44.103 6.737ZM47.431 9.272C47.7603 9.272 48.068 9.207 48.354 9.077C48.6487 8.947 48.9 8.76933 49.108 8.544C49.3247 8.31 49.4937 8.04133 49.615 7.738C49.7363 7.426 49.797 7.09233 49.797 6.737C49.797 6.38167 49.7363 6.05233 49.615 5.749C49.4937 5.437 49.3247 5.16833 49.108 4.943C48.9 4.71767 48.6487 4.54 48.354 4.41C48.068 4.28 47.7603 4.215 47.431 4.215C47.1017 4.215 46.7897 4.28 46.495 4.41C46.209 4.54 45.9577 4.71767 45.741 4.943C45.533 5.16833 45.364 5.437 45.234 5.749C45.1127 6.05233 45.052 6.38167 45.052 6.737C45.052 7.09233 45.1127 7.426 45.234 7.738C45.3553 8.04133 45.52 8.31 45.728 8.544C45.9447 8.76933 46.2003 8.947 46.495 9.077C46.7897 9.207 47.1017 9.272 47.431 9.272ZM52.5637 2.239C52.3903 2.239 52.2387 2.174 52.1087 2.044C51.9787 1.914 51.9137 1.76233 51.9137 1.589C51.9137 1.407 51.9787 1.25533 52.1087 1.134C52.2387 1.004 52.3903 0.939 52.5637 0.939C52.7457 0.939 52.8973 1.004 53.0187 1.134C53.1487 1.25533 53.2137 1.407 53.2137 1.589C53.2137 1.76233 53.1487 1.914 53.0187 2.044C52.8973 2.174 52.7457 2.239 52.5637 2.239ZM51.3677 12.704C51.2463 12.704 51.1337 12.6953 51.0297 12.678C50.9257 12.6607 50.839 12.6433 50.7697 12.626V11.82C50.8477 11.8373 50.9257 11.8503 51.0037 11.859C51.073 11.8677 51.1553 11.872 51.2507 11.872C51.5453 11.872 51.7577 11.8027 51.8877 11.664C52.0177 11.5253 52.0827 11.3 52.0827 10.988V3.487H53.0447V11.066C53.0447 11.586 52.8973 11.989 52.6027 12.275C52.308 12.561 51.8963 12.704 51.3677 12.704ZM60.1712 9.311C59.8072 9.57967 59.4259 9.78333 59.0272 9.922C58.6372 10.052 58.2082 10.117 57.7402 10.117C57.2722 10.117 56.8302 10.0303 56.4142 9.857C56.0069 9.68367 55.6515 9.44533 55.3482 9.142C55.0535 8.83867 54.8195 8.48333 54.6462 8.076C54.4729 7.66 54.3862 7.21367 54.3862 6.737C54.3862 6.269 54.4685 5.83133 54.6332 5.424C54.8065 5.01667 55.0362 4.66133 55.3222 4.358C55.6082 4.05467 55.9462 3.81633 56.3362 3.643C56.7349 3.46967 57.1552 3.383 57.5972 3.383C58.0305 3.383 58.4335 3.46967 58.8062 3.643C59.1875 3.81633 59.5125 4.05467 59.7812 4.358C60.0585 4.66133 60.2752 5.01667 60.4312 5.424C60.5959 5.83133 60.6782 6.269 60.6782 6.737V7.036H55.3352C55.4045 7.67733 55.6689 8.21033 56.1282 8.635C56.5875 9.05967 57.1379 9.272 57.7792 9.272C58.1172 9.272 58.4465 9.22 58.7672 9.116C59.0879 9.012 59.3565 8.86467 59.5732 8.674L60.1712 9.311ZM57.5712 4.228C57.0079 4.228 56.5182 4.41867 56.1022 4.8C55.6949 5.18133 55.4479 5.671 55.3612 6.269H59.7162C59.6295 5.697 59.3825 5.216 58.9752 4.826C58.5765 4.42733 58.1085 4.228 57.5712 4.228ZM65.0778 9.246C65.4245 9.246 65.7581 9.17667 66.0788 9.038C66.3995 8.89933 66.6985 8.69567 66.9758 8.427L67.5738 9.077C67.2271 9.40633 66.8371 9.662 66.4038 9.844C65.9705 10.026 65.5198 10.117 65.0518 10.117C64.5925 10.117 64.1591 10.0303 63.7518 9.857C63.3445 9.68367 62.9935 9.44533 62.6988 9.142C62.4041 8.83867 62.1701 8.479 61.9968 8.063C61.8235 7.647 61.7368 7.205 61.7368 6.737C61.7368 6.269 61.8235 5.83133 61.9968 5.424C62.1701 5.008 62.4041 4.64833 62.6988 4.345C62.9935 4.04167 63.3445 3.80333 63.7518 3.63C64.1591 3.448 64.5925 3.357 65.0518 3.357C65.5198 3.357 65.9748 3.448 66.4168 3.63C66.8675 3.812 67.2618 4.06333 67.5998 4.384L66.9888 5.086C66.7288 4.81733 66.4298 4.60933 66.0918 4.462C65.7538 4.31467 65.4115 4.241 65.0648 4.241C64.7355 4.241 64.4235 4.306 64.1288 4.436C63.8341 4.566 63.5785 4.74367 63.3618 4.969C63.1538 5.19433 62.9891 5.45867 62.8678 5.762C62.7465 6.06533 62.6858 6.39033 62.6858 6.737C62.6858 7.09233 62.7465 7.426 62.8678 7.738C62.9978 8.04133 63.1668 8.30567 63.3748 8.531C63.5915 8.74767 63.8471 8.921 64.1418 9.051C64.4365 9.181 64.7485 9.246 65.0778 9.246ZM69.6338 8.544V4.306H68.2298V3.487H69.6338V1.836L70.5828 1.589V3.487H72.5458V4.306H70.5828V8.297C70.5828 8.64367 70.6608 8.895 70.8168 9.051C70.9728 9.19833 71.2285 9.272 71.5838 9.272C71.7658 9.272 71.9261 9.259 72.0648 9.233C72.2121 9.207 72.3681 9.16367 72.5328 9.103V9.948C72.3681 10.0087 72.1818 10.052 71.9738 10.078C71.7745 10.104 71.5795 10.117 71.3888 10.117C70.8255 10.117 70.3921 9.98267 70.0888 9.714C69.7855 9.44533 69.6338 9.05533 69.6338 8.544Z" fill="url(#paint0_linear)"/>
<defs>
<linearGradient id="paint0_linear" x1="4.98328e-06" y1="0.399993" x2="90.1149" y2="-2.60176" gradientUnits="userSpaceOnUse">
<stop stop-color="#FA709A"/>
<stop offset="0.9999" stop-color="#FBD786"/>
<stop offset="1" stop-color="#FEE140"/>
</linearGradient>
</defs>
</svg>
