<svg width="20" height="16" viewBox="0 0 20 16" fill="none" xmlns="http://www.w3.org/2000/svg">
<path d="M20 1C20 0.447716 19.5523 -3.91405e-08 19 -8.74228e-08L1 -1.66103e-06C0.447717 -1.70931e-06 1.35962e-06 0.447713 1.31134e-06 0.999998L8.40604e-07 6.38461C7.92321e-07 6.9369 0.447717 7.38461 1 7.38461L19 7.38461C19.5523 7.38461 20 6.9369 20 6.38461L20 1ZM19 16C19.5523 16 20 15.5523 20 15L20 9.61538C20 9.0631 19.5523 8.61538 19 8.61538L1 8.61538C0.447716 8.61538 6.06443e-07 9.0631 5.58161e-07 9.61538L8.74228e-08 15C3.91405e-08 15.5523 0.447716 16 1 16L19 16Z" fill="#333333" fill-opacity="0.2"/>
</svg>
