<svg width="23" height="23" viewBox="0 0 23 23" fill="none" xmlns="http://www.w3.org/2000/svg">
<circle cx="11.5" cy="11.5" r="11.5" fill="#333333" fill-opacity="0.5"/>
<path d="M16.2495 10.5H6.75C6.336 10.5 6 10.836 6 11.25V11.7502C6 12.1642 6.336 12.5002 6.75 12.5002H16.2502C16.6642 12.5002 17.0002 12.1642 17.0002 11.7502V11.25C16.9995 10.8353 16.6642 10.5 16.2495 10.5Z" fill="white"/>
<path d="M10.5 6.75V16.2502C10.5 16.6642 10.836 17.0002 11.25 17.0002H11.7502C12.1642 17.0002 12.5002 16.6642 12.5002 16.2502V6.75C12.5002 6.336 12.1642 6 11.7502 6H11.25C10.8353 6 10.5 6.33527 10.5 6.75Z" fill="white"/>
</svg>
