<svg width="89" height="16" viewBox="0 0 89 16" fill="none" xmlns="http://www.w3.org/2000/svg">
<path d="M20 1C20 0.447715 19.5523 -3.91405e-08 19 -8.74228e-08L1 -1.66103e-06C0.447717 -1.70931e-06 1.35962e-06 0.447713 1.31134e-06 0.999998L8.40604e-07 6.38461C7.92321e-07 6.9369 0.447716 7.38461 1 7.38461L19 7.38461C19.5523 7.38461 20 6.9369 20 6.38461L20 1ZM19 16C19.5523 16 20 15.5523 20 15L20 9.61538C20 9.0631 19.5523 8.61538 19 8.61538L1 8.61538C0.447716 8.61538 6.06443e-07 9.0631 5.58161e-07 9.61538L8.74228e-08 15C3.91405e-08 15.5523 0.447715 16 1 16L19 16Z" fill="#333333" fill-opacity="0.8"/>
<rect x="73" width="7.46667" height="7.46667" rx="1" fill="#333333" fill-opacity="0.2"/>
<rect x="73" y="8.5332" width="7.46667" height="7.46667" rx="1" fill="#333333" fill-opacity="0.2"/>
<rect x="81.5332" width="7.46667" height="7.46667" rx="1" fill="#333333" fill-opacity="0.2"/>
<rect x="81.5332" y="8.5332" width="7.46667" height="7.46667" rx="1" fill="#333333" fill-opacity="0.2"/>
<path d="M46 1C46 0.447715 45.5523 -3.91405e-08 45 -8.74228e-08L27 -1.66103e-06C26.4477 -1.70931e-06 26 0.447713 26 0.999998L26 6.38461C26 6.9369 26.4477 7.38461 27 7.38461L45 7.38461C45.5523 7.38461 46 6.9369 46 6.38461L46 1ZM45 16C45.5523 16 46 15.5523 46 15L46 9.61538C46 9.0631 45.5523 8.61538 45 8.61538L27 8.61538C26.4477 8.61538 26 9.0631 26 9.61538L26 15C26 15.5523 26.4477 16 27 16L45 16Z" fill="#333333" fill-opacity="0.2"/>
<rect x="52" width="7.46667" height="7.46667" rx="1" fill="#333333" fill-opacity="0.8"/>
<rect x="52" y="8.5332" width="7.46667" height="7.46667" rx="1" fill="#333333" fill-opacity="0.8"/>
<rect x="60.5332" width="7.46667" height="7.46667" rx="1" fill="#333333" fill-opacity="0.8"/>
<rect x="60.5332" y="8.5332" width="7.46667" height="7.46667" rx="1" fill="#333333" fill-opacity="0.8"/>
</svg>
